<mxfile host="app.diagrams.net" agent="Mozilla/5.0 (Windows NT 10.0; Win64; x64) AppleWebKit/537.36 (KHTML, like Gecko) Chrome/131.0.0.0 Safari/537.36" version="25.0.3">
  <diagram name="Page-1" id="OD0hXRocVsFIBVnM2RXd">
    <mxGraphModel dx="1440" dy="1994" grid="1" gridSize="10" guides="1" tooltips="1" connect="1" arrows="1" fold="1" page="1" pageScale="1" pageWidth="850" pageHeight="1100" math="0" shadow="0">
      <root>
        <mxCell id="0" />
        <mxCell id="1" parent="0" />
        <mxCell id="Cj-sP5WHH01vlWC_q-LA-2" style="edgeStyle=orthogonalEdgeStyle;rounded=0;orthogonalLoop=1;jettySize=auto;html=1;entryX=0.375;entryY=0;entryDx=0;entryDy=0;entryPerimeter=0;" edge="1" parent="1" source="Cj-sP5WHH01vlWC_q-LA-1" target="Cj-sP5WHH01vlWC_q-LA-3">
          <mxGeometry relative="1" as="geometry">
            <mxPoint x="290" y="440" as="targetPoint" />
            <Array as="points">
              <mxPoint x="260" y="365" />
            </Array>
          </mxGeometry>
        </mxCell>
        <mxCell id="Cj-sP5WHH01vlWC_q-LA-18" style="edgeStyle=orthogonalEdgeStyle;rounded=0;orthogonalLoop=1;jettySize=auto;html=1;entryX=0.5;entryY=0;entryDx=0;entryDy=0;" edge="1" parent="1" source="Cj-sP5WHH01vlWC_q-LA-1" target="Cj-sP5WHH01vlWC_q-LA-19">
          <mxGeometry relative="1" as="geometry">
            <mxPoint x="780.0000000000002" y="440" as="targetPoint" />
            <Array as="points">
              <mxPoint x="1020" y="365" />
              <mxPoint x="1020" y="440" />
            </Array>
          </mxGeometry>
        </mxCell>
        <mxCell id="Cj-sP5WHH01vlWC_q-LA-1" value="DevOps Engineer" style="ellipse;whiteSpace=wrap;html=1;fillColor=#dae8fc;strokeColor=#6c8ebf;" vertex="1" parent="1">
          <mxGeometry x="510" y="310" width="120" height="110" as="geometry" />
        </mxCell>
        <mxCell id="Cj-sP5WHH01vlWC_q-LA-39" style="edgeStyle=orthogonalEdgeStyle;rounded=0;orthogonalLoop=1;jettySize=auto;html=1;exitX=0.75;exitY=1;exitDx=0;exitDy=0;" edge="1" parent="1" source="Cj-sP5WHH01vlWC_q-LA-3">
          <mxGeometry relative="1" as="geometry">
            <mxPoint x="305" y="710" as="targetPoint" />
            <mxPoint x="275" y="620" as="sourcePoint" />
          </mxGeometry>
        </mxCell>
        <mxCell id="Cj-sP5WHH01vlWC_q-LA-3" value="Networking" style="rounded=0;whiteSpace=wrap;html=1;fillColor=#e1d5e7;strokeColor=#9673a6;" vertex="1" parent="1">
          <mxGeometry x="215" y="500" width="120" height="60" as="geometry" />
        </mxCell>
        <mxCell id="Cj-sP5WHH01vlWC_q-LA-7" value="" style="endArrow=classic;html=1;rounded=0;exitX=0.089;exitY=0.993;exitDx=0;exitDy=0;exitPerimeter=0;" edge="1" parent="1" source="Cj-sP5WHH01vlWC_q-LA-3">
          <mxGeometry width="50" height="50" relative="1" as="geometry">
            <mxPoint x="405" y="590" as="sourcePoint" />
            <mxPoint x="225" y="600" as="targetPoint" />
          </mxGeometry>
        </mxCell>
        <mxCell id="Cj-sP5WHH01vlWC_q-LA-8" value="" style="endArrow=classic;html=1;rounded=0;exitX=0;exitY=0.167;exitDx=0;exitDy=0;exitPerimeter=0;" edge="1" parent="1" source="Cj-sP5WHH01vlWC_q-LA-3">
          <mxGeometry width="50" height="50" relative="1" as="geometry">
            <mxPoint x="155" y="510" as="sourcePoint" />
            <mxPoint x="155" y="510" as="targetPoint" />
          </mxGeometry>
        </mxCell>
        <mxCell id="Cj-sP5WHH01vlWC_q-LA-10" value="&lt;font style=&quot;font-size: 10px;&quot;&gt;ISO/OSI Model&lt;/font&gt;" style="text;html=1;align=center;verticalAlign=middle;resizable=0;points=[];autosize=1;strokeColor=none;fillColor=none;" vertex="1" parent="1">
          <mxGeometry x="65" y="490" width="90" height="30" as="geometry" />
        </mxCell>
        <mxCell id="Cj-sP5WHH01vlWC_q-LA-11" value="&lt;font style=&quot;font-size: 11px;&quot;&gt;DNS&amp;amp;DHCP&lt;/font&gt;&lt;div&gt;&lt;font style=&quot;font-size: 11px;&quot;&gt;NAT&lt;/font&gt;&lt;/div&gt;" style="text;html=1;align=center;verticalAlign=middle;resizable=0;points=[];autosize=1;strokeColor=none;fillColor=none;" vertex="1" parent="1">
          <mxGeometry x="185" y="600" width="90" height="40" as="geometry" />
        </mxCell>
        <mxCell id="Cj-sP5WHH01vlWC_q-LA-12" value="" style="endArrow=classic;html=1;rounded=0;exitX=-0.005;exitY=0.852;exitDx=0;exitDy=0;exitPerimeter=0;" edge="1" parent="1" source="Cj-sP5WHH01vlWC_q-LA-3">
          <mxGeometry width="50" height="50" relative="1" as="geometry">
            <mxPoint x="225" y="520" as="sourcePoint" />
            <mxPoint x="155" y="550" as="targetPoint" />
          </mxGeometry>
        </mxCell>
        <mxCell id="Cj-sP5WHH01vlWC_q-LA-13" value="&lt;font style=&quot;font-size: 10px;&quot;&gt;Forward Proxy&amp;amp;Reverse Proxy&amp;nbsp;&lt;/font&gt;" style="text;html=1;align=center;verticalAlign=middle;resizable=0;points=[];autosize=1;strokeColor=none;fillColor=none;" vertex="1" parent="1">
          <mxGeometry y="535" width="160" height="30" as="geometry" />
        </mxCell>
        <mxCell id="Cj-sP5WHH01vlWC_q-LA-16" style="edgeStyle=orthogonalEdgeStyle;rounded=0;orthogonalLoop=1;jettySize=auto;html=1;" edge="1" parent="1" source="Cj-sP5WHH01vlWC_q-LA-15">
          <mxGeometry relative="1" as="geometry">
            <mxPoint x="420" y="530" as="targetPoint" />
          </mxGeometry>
        </mxCell>
        <mxCell id="Cj-sP5WHH01vlWC_q-LA-15" value="storage" style="shape=cylinder3;whiteSpace=wrap;html=1;boundedLbl=1;backgroundOutline=1;size=15;fillColor=#6d8764;fontColor=#ffffff;strokeColor=#3A5431;" vertex="1" parent="1">
          <mxGeometry x="540" y="490" width="60" height="80" as="geometry" />
        </mxCell>
        <mxCell id="Cj-sP5WHH01vlWC_q-LA-17" value="Object Storage&lt;div&gt;File Storage&lt;/div&gt;&lt;div&gt;Block Storage&lt;/div&gt;" style="text;html=1;align=center;verticalAlign=middle;resizable=0;points=[];autosize=1;strokeColor=none;fillColor=none;" vertex="1" parent="1">
          <mxGeometry x="410" y="530" width="100" height="60" as="geometry" />
        </mxCell>
        <mxCell id="Cj-sP5WHH01vlWC_q-LA-19" value="OS[Linux]" style="whiteSpace=wrap;html=1;aspect=fixed;fillColor=#b0e3e6;strokeColor=#0e8088;" vertex="1" parent="1">
          <mxGeometry x="980" y="460" width="80" height="80" as="geometry" />
        </mxCell>
        <mxCell id="Cj-sP5WHH01vlWC_q-LA-20" value="" style="endArrow=classic;html=1;rounded=0;entryX=0.976;entryY=0.597;entryDx=0;entryDy=0;entryPerimeter=0;" edge="1" parent="1" source="Cj-sP5WHH01vlWC_q-LA-1" target="Cj-sP5WHH01vlWC_q-LA-21">
          <mxGeometry width="50" height="50" relative="1" as="geometry">
            <mxPoint x="500" y="180" as="sourcePoint" />
            <mxPoint x="300" y="150" as="targetPoint" />
          </mxGeometry>
        </mxCell>
        <mxCell id="Cj-sP5WHH01vlWC_q-LA-21" value="Cloud[AWS]" style="whiteSpace=wrap;html=1;aspect=fixed;fillColor=#fad7ac;strokeColor=#b46504;" vertex="1" parent="1">
          <mxGeometry x="130" y="210" width="80" height="80" as="geometry" />
        </mxCell>
        <mxCell id="Cj-sP5WHH01vlWC_q-LA-22" value="" style="endArrow=classic;html=1;rounded=0;exitX=0.105;exitY=0.208;exitDx=0;exitDy=0;exitPerimeter=0;entryX=1.038;entryY=0.875;entryDx=0;entryDy=0;entryPerimeter=0;" edge="1" parent="1" source="Cj-sP5WHH01vlWC_q-LA-1" target="Cj-sP5WHH01vlWC_q-LA-26">
          <mxGeometry width="50" height="50" relative="1" as="geometry">
            <mxPoint x="470" y="250" as="sourcePoint" />
            <mxPoint x="400" y="80" as="targetPoint" />
          </mxGeometry>
        </mxCell>
        <mxCell id="Cj-sP5WHH01vlWC_q-LA-26" value="&lt;font style=&quot;font-size: 10px;&quot;&gt;containerization&lt;/font&gt;&lt;div&gt;&lt;font style=&quot;font-size: 10px;&quot;&gt;&amp;amp; Orchestration&lt;/font&gt;&lt;/div&gt;&lt;div&gt;&lt;font style=&quot;font-size: 10px;&quot;&gt;[Docker&amp;amp;K8s]&lt;/font&gt;&lt;/div&gt;" style="whiteSpace=wrap;html=1;aspect=fixed;fillColor=#bac8d3;strokeColor=#23445d;" vertex="1" parent="1">
          <mxGeometry x="130" y="70" width="80" height="80" as="geometry" />
        </mxCell>
        <mxCell id="Cj-sP5WHH01vlWC_q-LA-27" value="" style="endArrow=classic;html=1;rounded=0;exitX=0.227;exitY=0.069;exitDx=0;exitDy=0;exitPerimeter=0;entryX=0.5;entryY=1;entryDx=0;entryDy=0;" edge="1" parent="1" source="Cj-sP5WHH01vlWC_q-LA-1" target="Cj-sP5WHH01vlWC_q-LA-28">
          <mxGeometry width="50" height="50" relative="1" as="geometry">
            <mxPoint x="480" y="240" as="sourcePoint" />
            <mxPoint x="400" y="100" as="targetPoint" />
          </mxGeometry>
        </mxCell>
        <mxCell id="Cj-sP5WHH01vlWC_q-LA-28" value="CI/CD&lt;div&gt;Jenkins&lt;/div&gt;&lt;div&gt;GithubActions&lt;/div&gt;&lt;div&gt;ArGoCD&lt;/div&gt;" style="ellipse;whiteSpace=wrap;html=1;fillColor=#b0e3e6;strokeColor=#0e8088;" vertex="1" parent="1">
          <mxGeometry x="265" y="-21" width="120" height="80" as="geometry" />
        </mxCell>
        <mxCell id="Cj-sP5WHH01vlWC_q-LA-29" value="" style="endArrow=classic;html=1;rounded=0;exitX=0.445;exitY=0.003;exitDx=0;exitDy=0;exitPerimeter=0;entryX=0.5;entryY=1;entryDx=0;entryDy=0;" edge="1" parent="1" source="Cj-sP5WHH01vlWC_q-LA-1" target="Cj-sP5WHH01vlWC_q-LA-30">
          <mxGeometry width="50" height="50" relative="1" as="geometry">
            <mxPoint x="490" y="250" as="sourcePoint" />
            <mxPoint x="520" y="80" as="targetPoint" />
          </mxGeometry>
        </mxCell>
        <mxCell id="Cj-sP5WHH01vlWC_q-LA-30" value="Infra Management&lt;div&gt;Terraform&lt;/div&gt;" style="ellipse;whiteSpace=wrap;html=1;fillColor=#d0cee2;strokeColor=#56517e;" vertex="1" parent="1">
          <mxGeometry x="445" y="-40" width="90" height="80" as="geometry" />
        </mxCell>
        <mxCell id="Cj-sP5WHH01vlWC_q-LA-31" value="Observability&lt;div&gt;Prometheus&amp;amp;&lt;/div&gt;&lt;div&gt;Grafana&lt;/div&gt;&lt;div&gt;Elastic Cloud&lt;/div&gt;&lt;div&gt;Kiali&amp;amp;Jaegar&lt;/div&gt;" style="whiteSpace=wrap;html=1;aspect=fixed;fillColor=#bac8d3;strokeColor=#23445d;" vertex="1" parent="1">
          <mxGeometry x="580" y="-30" width="80" height="80" as="geometry" />
        </mxCell>
        <mxCell id="Cj-sP5WHH01vlWC_q-LA-32" value="" style="endArrow=classic;html=1;rounded=0;exitX=0.663;exitY=0.032;exitDx=0;exitDy=0;exitPerimeter=0;entryX=0.445;entryY=1.036;entryDx=0;entryDy=0;entryPerimeter=0;" edge="1" parent="1" source="Cj-sP5WHH01vlWC_q-LA-1" target="Cj-sP5WHH01vlWC_q-LA-31">
          <mxGeometry width="50" height="50" relative="1" as="geometry">
            <mxPoint x="523" y="250" as="sourcePoint" />
            <mxPoint x="530" y="90" as="targetPoint" />
          </mxGeometry>
        </mxCell>
        <mxCell id="Cj-sP5WHH01vlWC_q-LA-35" value="" style="endArrow=classic;html=1;rounded=0;exitX=1;exitY=0;exitDx=0;exitDy=0;entryX=0;entryY=1;entryDx=0;entryDy=0;" edge="1" parent="1" source="Cj-sP5WHH01vlWC_q-LA-1" target="Cj-sP5WHH01vlWC_q-LA-36">
          <mxGeometry width="50" height="50" relative="1" as="geometry">
            <mxPoint x="550" y="254" as="sourcePoint" />
            <mxPoint x="750" y="100" as="targetPoint" />
          </mxGeometry>
        </mxCell>
        <mxCell id="Cj-sP5WHH01vlWC_q-LA-36" value="Automation&lt;div&gt;- Bash Scripting&lt;/div&gt;&lt;div&gt;- Ansible&lt;/div&gt;&lt;div&gt;- Python&lt;/div&gt;&lt;div&gt;- yaml&lt;/div&gt;&lt;div&gt;- json&lt;/div&gt;" style="ellipse;whiteSpace=wrap;html=1;aspect=fixed;fillColor=#cce5ff;strokeColor=#36393d;" vertex="1" parent="1">
          <mxGeometry x="720" y="-50" width="110" height="110" as="geometry" />
        </mxCell>
        <mxCell id="Cj-sP5WHH01vlWC_q-LA-37" value="" style="endArrow=classic;html=1;rounded=0;fontStyle=1;entryX=0;entryY=1;entryDx=0;entryDy=-15;entryPerimeter=0;exitX=0.956;exitY=0.223;exitDx=0;exitDy=0;exitPerimeter=0;" edge="1" parent="1" source="Cj-sP5WHH01vlWC_q-LA-1" target="Cj-sP5WHH01vlWC_q-LA-38">
          <mxGeometry width="50" height="50" relative="1" as="geometry">
            <mxPoint x="572" y="266" as="sourcePoint" />
            <mxPoint x="860" y="180" as="targetPoint" />
          </mxGeometry>
        </mxCell>
        <mxCell id="Cj-sP5WHH01vlWC_q-LA-38" value="&lt;div&gt;&lt;font style=&quot;font-size: 21px;&quot;&gt;Databases[&lt;/font&gt;&lt;/div&gt;&lt;font style=&quot;font-size: 21px;&quot;&gt;MYSQL&lt;/font&gt;&lt;div&gt;&lt;font style=&quot;font-size: 21px;&quot;&gt;NOSQL]&lt;/font&gt;&lt;/div&gt;" style="shape=cylinder3;whiteSpace=wrap;html=1;boundedLbl=1;backgroundOutline=1;size=15;fillColor=#cdeb8b;strokeColor=#36393d;" vertex="1" parent="1">
          <mxGeometry x="860" y="-10" width="120" height="140" as="geometry" />
        </mxCell>
        <mxCell id="Cj-sP5WHH01vlWC_q-LA-41" value="subnets&lt;div&gt;CIDR&lt;/div&gt;&lt;div&gt;public&amp;amp; private subnets&lt;/div&gt;" style="text;html=1;align=center;verticalAlign=middle;resizable=0;points=[];autosize=1;strokeColor=none;fillColor=none;" vertex="1" parent="1">
          <mxGeometry x="235" y="700" width="150" height="60" as="geometry" />
        </mxCell>
        <mxCell id="Cj-sP5WHH01vlWC_q-LA-43" value="" style="endArrow=classic;html=1;rounded=0;exitX=0.996;exitY=0.336;exitDx=0;exitDy=0;exitPerimeter=0;" edge="1" parent="1" source="Cj-sP5WHH01vlWC_q-LA-1" target="Cj-sP5WHH01vlWC_q-LA-44">
          <mxGeometry width="50" height="50" relative="1" as="geometry">
            <mxPoint x="630" y="360" as="sourcePoint" />
            <mxPoint x="1050" y="280" as="targetPoint" />
          </mxGeometry>
        </mxCell>
        <mxCell id="Cj-sP5WHH01vlWC_q-LA-44" value="&lt;font style=&quot;font-size: 21px;&quot;&gt;caching Mechanism&lt;/font&gt;" style="ellipse;whiteSpace=wrap;html=1;fillColor=#ffcc99;strokeColor=#36393d;" vertex="1" parent="1">
          <mxGeometry x="1020" y="140" width="130" height="110" as="geometry" />
        </mxCell>
        <mxCell id="Cj-sP5WHH01vlWC_q-LA-45" value="&lt;font color=&quot;#67ab9f&quot; style=&quot;font-size: 39px;&quot;&gt;DevOps Aspirant Must know Skill Set&lt;/font&gt;" style="text;html=1;align=center;verticalAlign=middle;resizable=0;points=[];autosize=1;strokeColor=none;fillColor=none;" vertex="1" parent="1">
          <mxGeometry x="445" y="-230" width="670" height="60" as="geometry" />
        </mxCell>
        <mxCell id="Cj-sP5WHH01vlWC_q-LA-47" style="edgeStyle=orthogonalEdgeStyle;rounded=0;orthogonalLoop=1;jettySize=auto;html=1;entryX=0.5;entryY=0;entryDx=0;entryDy=0;entryPerimeter=0;" edge="1" parent="1" source="Cj-sP5WHH01vlWC_q-LA-1" target="Cj-sP5WHH01vlWC_q-LA-15">
          <mxGeometry relative="1" as="geometry" />
        </mxCell>
      </root>
    </mxGraphModel>
  </diagram>
</mxfile>
